<svg xmlns="http://www.w3.org/2000/svg" width="1920" height="1080"><path d="M1135,1526L665,1554L1765,1569Z" fill="#774889" stroke="#774889" stroke-width="1.51"/><path d="M2346,1221L2427,1409L2449,868Z" fill="#76217a" stroke="#76217a" stroke-width="1.51"/><path d="M1705,-543L2006,-333L2514,-341Z" fill="#ba8dbe" stroke="#ba8dbe" stroke-width="1.51"/><path d="M2085,-14L2272,98L2514,-341Z" fill="#a27aac" stroke="#a27aac" stroke-width="1.51"/><path d="M2006,-333L2085,-14L2514,-341Z" fill="#b183b5" stroke="#b183b5" stroke-width="1.51"/><path d="M2272,98L2103,246L2534,180Z" fill="#936fa5" stroke="#936fa5" stroke-width="1.51"/><path d="M2014,624L2449,868L2534,180Z" fill="#825797" stroke="#825797" stroke-width="1.51"/><path d="M2103,246L2014,624L2534,180Z" fill="#9169a6" stroke="#9169a6" stroke-width="1.51"/><path d="M2449,868L2427,1409L2534,180Z" fill="#763d84" stroke="#763d84" stroke-width="1.51"/><path d="M2514,-341L2272,98L2534,180Z" fill="#9572a0" stroke="#9572a0" stroke-width="1.51"/><path d="M2226,1217L2346,1221L2449,868Z" fill="#7b2882" stroke="#7b2882" stroke-width="1.51"/><path d="M2014,624L2226,1217L2449,868Z" fill="#853d90" stroke="#853d90" stroke-width="1.51"/><path d="M2346,1221L2226,1217L2427,1409Z" fill="#791778" stroke="#791778" stroke-width="1.51"/><path d="M2226,1217L2097,1517L2427,1409Z" fill="#7b0d76" stroke="#7b0d76" stroke-width="1.51"/><path d="M2014,624L1556,1142L2226,1217Z" fill="#88429a" stroke="#88429a" stroke-width="1.51"/><path d="M2085,-14L2103,246L2272,98Z" fill="#9f77af" stroke="#9f77af" stroke-width="1.51"/><path d="M1765,1569L2097,1517L2226,1217Z" fill="#7c1b7c" stroke="#7c1b7c" stroke-width="1.51"/><path d="M1556,1142L1765,1569L2226,1217Z" fill="#852d8c" stroke="#852d8c" stroke-width="1.51"/><path d="M-78,1489L-501,1492L314,1554Z" fill="#9e79a5" stroke="#9e79a5" stroke-width="1.51"/><path d="M1532,724L1496,1050L1556,1142Z" fill="#8b58a7" stroke="#8b58a7" stroke-width="1.51"/><path d="M1532,724L1556,1142L2014,624Z" fill="#8b5aa8" stroke="#8b5aa8" stroke-width="1.51"/><path d="M2006,-333L1838,52L2085,-14Z" fill="#ab86bb" stroke="#ab86bb" stroke-width="1.51"/><path d="M1794,265L2014,624L2103,246Z" fill="#9270b0" stroke="#9270b0" stroke-width="1.51"/><path d="M2085,-14L1838,52L2103,246Z" fill="#a07db6" stroke="#a07db6" stroke-width="1.51"/><path d="M1838,52L1794,265L2103,246Z" fill="#9b7eb7" stroke="#9b7eb7" stroke-width="1.51"/><path d="M1705,-543L1838,52L2006,-333Z" fill="#b693c5" stroke="#b693c5" stroke-width="1.51"/><path d="M1794,265L1532,724L2014,624Z" fill="#8d6db1" stroke="#8d6db1" stroke-width="1.51"/><path d="M1314,-369L1350,-122L1705,-543Z" fill="#b9a8d1" stroke="#b9a8d1" stroke-width="1.51"/><path d="M1350,-122L1794,265L1838,52Z" fill="#a38ec3" stroke="#a38ec3" stroke-width="1.51"/><path d="M1705,-543L1350,-122L1838,52Z" fill="#b29aca" stroke="#b29aca" stroke-width="1.51"/><path d="M965,-546L1314,-369L1705,-543Z" fill="#bfb2d7" stroke="#bfb2d7" stroke-width="1.51"/><path d="M1556,1142L1199,1395L1765,1569Z" fill="#873d92" stroke="#873d92" stroke-width="1.51"/><path d="M1161,221L1532,724L1794,265Z" fill="#9284bd" stroke="#9284bd" stroke-width="1.51"/><path d="M1350,-122L1161,221L1794,265Z" fill="#9f96c7" stroke="#9f96c7" stroke-width="1.51"/><path d="M1199,1395L1135,1526L1765,1569Z" fill="#7b4089" stroke="#7b4089" stroke-width="1.51"/><path d="M1240,840L1496,1050L1532,724Z" fill="#8c65ae" stroke="#8c65ae" stroke-width="1.51"/><path d="M1161,221L1240,840L1532,724Z" fill="#8d7fbb" stroke="#8d7fbb" stroke-width="1.51"/><path d="M1496,1050L1199,1395L1556,1142Z" fill="#8a4e9f" stroke="#8a4e9f" stroke-width="1.51"/><path d="M1161,221L956,723L1240,840Z" fill="#8d8ac0" stroke="#8d8ac0" stroke-width="1.51"/><path d="M1240,840L1199,1395L1496,1050Z" fill="#8b5aa8" stroke="#8b5aa8" stroke-width="1.51"/><path d="M858,1133L1199,1395L1240,840Z" fill="#8c64ac" stroke="#8c64ac" stroke-width="1.51"/><path d="M773,-320L882,21L1314,-369Z" fill="#b3bcda" stroke="#b3bcda" stroke-width="1.51"/><path d="M1314,-369L882,21L1350,-122Z" fill="#afafd4" stroke="#afafd4" stroke-width="1.51"/><path d="M882,21L1082,178L1350,-122Z" fill="#a4abd2" stroke="#a4abd2" stroke-width="1.51"/><path d="M1082,178L1161,221L1350,-122Z" fill="#a1a4ce" stroke="#a1a4ce" stroke-width="1.51"/><path d="M965,-546L773,-320L1314,-369Z" fill="#bcc1dd" stroke="#bcc1dd" stroke-width="1.51"/><path d="M1082,178L956,723L1161,221Z" fill="#929cc9" stroke="#929cc9" stroke-width="1.51"/><path d="M956,723L858,1133L1240,840Z" fill="#8c78b7" stroke="#8c78b7" stroke-width="1.51"/><path d="M858,1133L1135,1526L1199,1395Z" fill="#8b579e" stroke="#8b579e" stroke-width="1.51"/><path d="M454,405L956,723L1082,178Z" fill="#93a3cd" stroke="#93a3cd" stroke-width="1.51"/><path d="M858,1133L665,1554L1135,1526Z" fill="#895e9e" stroke="#895e9e" stroke-width="1.51"/><path d="M882,21L454,405L1082,178Z" fill="#9db2d5" stroke="#9db2d5" stroke-width="1.51"/><path d="M605,1164L665,1554L858,1133Z" fill="#926dab" stroke="#926dab" stroke-width="1.51"/><path d="M773,-320L664,-73L882,21Z" fill="#b1c2de" stroke="#b1c2de" stroke-width="1.51"/><path d="M454,405L646,812L956,723Z" fill="#939ac8" stroke="#939ac8" stroke-width="1.51"/><path d="M646,812L858,1133L956,723Z" fill="#9082bc" stroke="#9082bc" stroke-width="1.51"/><path d="M338,-531L773,-320L965,-546Z" fill="#c4d2e6" stroke="#c4d2e6" stroke-width="1.51"/><path d="M664,-73L454,405L882,21Z" fill="#a5bcda" stroke="#a5bcda" stroke-width="1.51"/><path d="M646,812L605,1164L858,1133Z" fill="#937dba" stroke="#937dba" stroke-width="1.51"/><path d="M338,-531L664,-73L773,-320Z" fill="#bfd3e7" stroke="#bfd3e7" stroke-width="1.51"/><path d="M391,1122L314,1554L605,1164Z" fill="#9a77b1" stroke="#9a77b1" stroke-width="1.51"/><path d="M454,405L242,722L646,812Z" fill="#9aa3cd" stroke="#9aa3cd" stroke-width="1.51"/><path d="M391,1122L605,1164L646,812Z" fill="#9784bd" stroke="#9784bd" stroke-width="1.51"/><path d="M164,-26L454,405L664,-73Z" fill="#adc6e0" stroke="#adc6e0" stroke-width="1.51"/><path d="M338,-531L164,-26L664,-73Z" fill="#c1d5e8" stroke="#c1d5e8" stroke-width="1.51"/><path d="M605,1164L314,1554L665,1554Z" fill="#916da4" stroke="#916da4" stroke-width="1.51"/><path d="M250,508L242,722L454,405Z" fill="#9fafd3" stroke="#9fafd3" stroke-width="1.51"/><path d="M242,722L391,1122L646,812Z" fill="#9b92c5" stroke="#9b92c5" stroke-width="1.51"/><path d="M-608,-385L-277,-301L338,-531Z" fill="#e2edf4" stroke="#e2edf4" stroke-width="1.51"/><path d="M0,169L250,508L454,405Z" fill="#a8bedb" stroke="#a8bedb" stroke-width="1.51"/><path d="M164,-26L0,169L454,405Z" fill="#b1c9e1" stroke="#b1c9e1" stroke-width="1.51"/><path d="M-277,-301L164,-26L338,-531Z" fill="#d2e1ee" stroke="#d2e1ee" stroke-width="1.51"/><path d="M242,722L-181,968L391,1122Z" fill="#a695c7" stroke="#a695c7" stroke-width="1.51"/><path d="M-78,1489L314,1554L391,1122Z" fill="#a077ac" stroke="#a077ac" stroke-width="1.51"/><path d="M-181,968L-78,1489L391,1122Z" fill="#aa87bc" stroke="#aa87bc" stroke-width="1.51"/><path d="M-128,644L-181,968L242,722Z" fill="#ada6cf" stroke="#ada6cf" stroke-width="1.51"/><path d="M0,169L-112,295L250,508Z" fill="#b0c6e0" stroke="#b0c6e0" stroke-width="1.51"/><path d="M-128,644L242,722L250,508Z" fill="#a7aed3" stroke="#a7aed3" stroke-width="1.51"/><path d="M-112,295L-128,644L250,508Z" fill="#adbcda" stroke="#adbcda" stroke-width="1.51"/><path d="M-277,-301L0,169L164,-26Z" fill="#c9daea" stroke="#c9daea" stroke-width="1.51"/><path d="M-604,-144L-565,255L-277,-301Z" fill="#d9e6f1" stroke="#d9e6f1" stroke-width="1.51"/><path d="M-277,-301L-565,255L-112,295Z" fill="#ccdceb" stroke="#ccdceb" stroke-width="1.51"/><path d="M-181,968L-501,1492L-78,1489Z" fill="#b487b9" stroke="#b487b9" stroke-width="1.51"/><path d="M-277,-301L-112,295L0,169Z" fill="#c7d8e9" stroke="#c7d8e9" stroke-width="1.51"/><path d="M-653,1108L-501,1492L-181,968Z" fill="#bb93c4" stroke="#bb93c4" stroke-width="1.51"/><path d="M-436,895L-181,968L-128,644Z" fill="#b6a8d1" stroke="#b6a8d1" stroke-width="1.51"/><path d="M-565,255L-128,644L-112,295Z" fill="#bbcae2" stroke="#bbcae2" stroke-width="1.51"/><path d="M-436,895L-653,1108L-181,968Z" fill="#baa0cd" stroke="#baa0cd" stroke-width="1.51"/><path d="M-565,255L-436,895L-128,644Z" fill="#babddc" stroke="#babddc" stroke-width="1.51"/><path d="M-608,-385L-604,-144L-277,-301Z" fill="#e6f0f6" stroke="#e6f0f6" stroke-width="1.51"/><path d="M-565,255L-653,1108L-436,895Z" fill="#bfb4d8" stroke="#bfb4d8" stroke-width="1.51"/><path d="M-604,-144L-653,1108L-565,255Z" fill="#c4d0e6" stroke="#c4d0e6" stroke-width="1.51"/><path d="M-608,-385L-653,1108L-604,-144Z" fill="#cedeec" stroke="#cedeec" stroke-width="1.51"/></svg>